<?xml version="1.0" standalone="no"?>
<!DOCTYPE svg PUBLIC "-//W3C//DTD SVG 1.1//EN" "http://www.w3.org/Graphics/SVG/1.1/DTD/svg11.dtd">
<svg xmlns="http://www.w3.org/2000/svg" xmlns:xlink="http://www.w3.org/1999/xlink" version="1.1" id="Capa_1" x="0px" y="0px" viewBox="0 0 969 969" style="enable-background:new 0 0 969 969;" xml:space="preserve" width="969" height="969">
<style type="text/css">
	.st0{fill:#F9F7F3;}
	.st1{fill:#000E38;}
	.st2{fill:#0043FE;}
	.st3{fill:#680000;}
	.st4{fill:#FE1200;}
</style>
<path class="st0" d="M470.4,28.1c37-2.6,79.9,4.5,115.1,16.1c74.2,24.9,135.6,77.9,171.1,147.6c33.5,66.7,39.3,144,16.2,214.9  C742.4,498,637.4,589.1,566.7,652.2c-11.2,10.1-22.5,20-33.9,29.9c-11.3,9.9-22.6,20.5-36.1,27.3c-3.2,1.3-6.1,2.3-9.6,2.6  c-16.6,1.3-31.7-13.4-43.2-23.6c-5.1-4.5-10.3-9-15.5-13.5c-29.7-25.6-58.8-51.8-87.4-78.6c-24.1-22.8-48.4-46-70.2-71  c-9.6-11.1-18.6-23-27.5-34.8c-14.3-19-27.3-38.4-37.4-60.1c-12.9-27.8-20.3-59.3-22.4-89.8c-5.3-75.7,19.5-150.4,69-207.8  C308.8,68,385.4,34,470.4,28.1z"/>
<path class="st1" d="M521.9,397c11.2-0.4,22.4-0.1,33.6-0.1l59.5,0c48.1,0,96.4-0.5,144.5,0.1c-27.5,91-139.8,188.5-210.5,250.9  l-33.5,29.3c-7.3,6.3-15.4,14.8-24,19.2c-2.4,1.2-5.1,2.2-7.8,2.3c-2-0.4-3.9-1-5.7-1.9c-10.2-5-19.3-14.7-27.9-22.1  c-10.7-9.3-21.4-18.6-32-28c-24.6-21.6-48.8-43.7-72.6-66.1c-19.5-18.5-39-37.3-56.9-57.4c-8.7-9.8-16.9-20.1-25-30.3  c-14.1-17.8-27.5-36.4-38.2-56.5c-6.8-12.8-12-25.7-16.6-39.4c53.4-0.7,106.8,0,160.2,0C419.9,396.9,471,396.2,521.9,397z"/>
<path class="st2" d="M521.9,397c11.2-0.4,22.4-0.1,33.6-0.1l59.5,0c48.1,0,96.4-0.5,144.5,0.1c-27.5,91-139.8,188.5-210.5,250.9  l-33.5,29.3c-7.3,6.3-15.4,14.8-24,19.2c-2.4,1.2-5.1,2.2-7.8,2.3c1.3-3.9,0.4-36.2,0.4-42.5l0-145.8l0-46.4c0-8.6-0.4-17.4,0.2-26  c0.3-4,1.2-7.8,2.7-11.6c4.3-11.2,12.4-20.5,23.5-25.3c3.5-1.5,7.5-2.3,10.8-3.8C521.5,397.2,521.7,397.1,521.9,397z"/>
<path class="st3" d="M217.2,219.7c2.5-8.2,7-16.5,11-24c21.4-40.4,52.4-75,90.3-100.6c52.2-35.4,114.4-53,177.4-50.3  c10.8,0.5,22,1.1,32.6,3.1c10.4,0.4,22.5,3.9,32.6,6.6c52.4,13.9,99.8,42.3,136.8,81.9c20.8,22.5,43.1,54.7,53.4,83.7l-177.6,0  l-58.5,0c-10.5,0-21.2,0.3-31.7-0.1c-10.8-0.4-21.7-0.1-32.5-0.1l-57.6,0L217.2,219.7z"/>
<path class="st4" d="M528.6,47.9c10.4,0.4,22.5,3.9,32.6,6.6c52.4,13.9,99.8,42.3,136.8,81.9c20.8,22.5,43.1,54.7,53.4,83.7  l-177.6,0l-58.5,0c-10.5,0-21.2,0.3-31.7-0.1c1.4-3.7,0.4-17.9,0.4-22.6l0-72.9c0-11.7-1.2-28.5,0.8-39.6c1.2-7.1,4.2-13.9,8.6-19.6  c5.6-7.4,14.8-13.7,23.9-15.8C520.9,48.5,524.8,48.4,528.6,47.9z"/>
<path d="M707.7,742.4c11.8-0.2,23.5,0,35.3,0c-5.2,8.7-10.5,17.3-16,25.8L706.1,802c13.5,21.3,28.5,41.8,41.5,63.4  c-12.2,0.3-24.5,0.1-36.8,0c-9.3-13.7-17.1-28.7-25.8-42.8c-8,14.2-15.8,28.6-24,42.8l-46.4,0.1l-7.4-23.4  c-14.2-0.6-28.7-0.2-42.9-0.2c-2.3,7.9-5,15.7-7.5,23.5c-18.9,0.4-37.8,0.1-56.7,0.1c-0.2-15.9-0.1-31.8-0.1-47.6  c0-8.8-0.7-18.1,0.4-26.8c-8.3,24.7-15.9,49.7-24.4,74.3l-23.6,0c-3.3-7.8-5.5-16.4-8.2-24.5l-15.8-48.4c0.5,24.3,0.1,48.6,0.1,72.9  l-29.5,0c-0.3-15.7-0.1-31.5-0.1-47.3c0-6.7-1-22.5,0.7-28.3c1.7-6.1,5.7-12.2,8.7-17.8c5.2-9.9,10.4-19.7,15.5-29.7l13.4,0  c9.9,27.7,18.3,55.9,27.7,83.7c8.3-28.1,18.6-55.7,27.4-83.7l38.1,0c0.8,35-0.8,70.1,0,105.1c4.4-12,8.4-24.3,12.5-36.4  c7.7-22.9,15.6-45.8,23.5-68.6c13.2-0.3,26.5-0.1,39.8-0.1c12,32.8,22.9,66.2,34.1,99.3c8.7-13.4,16.7-27.2,25.2-40.6  c-12.1-19.6-25.3-38.6-36.7-58.6c12.1-0.2,24.2,0,36.4,0c7.6,11,14.7,25.6,21.4,37.5C694,767.6,700.7,754.9,707.7,742.4z M572,815.7  l14,0l13.7,0l-8.9-29.5c-1.5-5.2-2.8-11.3-5.1-16.1L572,815.7z"/>
<path d="M313.6,742.4c28.4-0.3,56.9,0,85.3,0l0,25.6l-52.7,0.2c0,4.9-0.9,17.5,0.4,21.7l1,0.1c16.9-0.3,34.2-0.6,51.1,0.2  c-4.2,8.7-8.7,17.3-13.3,25.7c-13,0.6-26.2,0-39.2,0.3c0,7.9,0,15.8,0,23.6c8.8,0,17.7,0,26.5,0c-3.9,8.7-8.7,17.2-13.3,25.6  l-80.4,0.1c-7.3-13.7-14.1-28.2-20.5-42.4c-6.5-0.2-13,0-19.4-0.1c-0.1,14.2,0.1,28.3-0.1,42.5l-31.2,0c-0.4-13.9-0.1-27.9-0.1-41.7  l0-81.4l35.9,0c10.4,0,21.1-0.5,31.4,1.5c10.5,2.1,19.9,6.7,25.8,15.9c6,9.3,6.9,22.1,4.5,32.7c-2.4,10.7-8.6,18.1-17.7,23.9  c7.8,16.9,17.4,33.1,25.8,49.8C313.8,824.8,313.1,783.6,313.6,742.4z M239.1,798.6c9.5,0,24.6,2,32.2-4.5c3.1-4,4.4-8.6,3.8-13.7  c-0.4-3.8-1.9-7.3-5-9.7c-7.2-5.7-22.4-3.7-31.2-3.7C239.1,777.5,238.9,788.1,239.1,798.6z"/>
<g>
	<path d="M756.3,742.3c0.9,0,1.7,0.2,2.6,0.7c0.8,0.4,1.5,1.1,1.9,1.9c0.5,0.8,0.7,1.7,0.7,2.6c0,0.9-0.2,1.8-0.7,2.6   c-0.5,0.8-1.1,1.5-1.9,1.9c-0.8,0.5-1.7,0.7-2.6,0.7c-0.9,0-1.8-0.2-2.6-0.7c-0.8-0.5-1.5-1.1-1.9-1.9c-0.5-0.8-0.7-1.7-0.7-2.6   c0-0.9,0.2-1.8,0.7-2.6c0.5-0.8,1.1-1.5,1.9-1.9C754.5,742.5,755.4,742.3,756.3,742.3z M756.3,743.3c-0.7,0-1.4,0.2-2.1,0.5   c-0.7,0.4-1.2,0.9-1.5,1.5c-0.4,0.7-0.6,1.4-0.6,2.1c0,0.7,0.2,1.4,0.6,2.1c0.4,0.7,0.9,1.2,1.5,1.5c0.7,0.4,1.3,0.6,2.1,0.6   c0.7,0,1.4-0.2,2.1-0.6c0.7-0.4,1.2-0.9,1.5-1.5c0.4-0.7,0.6-1.4,0.6-2.1c0-0.7-0.2-1.4-0.6-2.1c-0.4-0.7-0.9-1.2-1.6-1.5   C757.7,743.5,757,743.3,756.3,743.3z M753.9,750.2v-5.5h1.1c1,0,1.6,0,1.8,0c0.4,0,0.7,0.1,0.9,0.2s0.4,0.3,0.5,0.5   c0.1,0.2,0.2,0.5,0.2,0.8c0,0.4-0.1,0.7-0.4,1c-0.3,0.3-0.6,0.5-1.1,0.5c0.2,0.1,0.3,0.1,0.4,0.2c0.1,0.1,0.2,0.2,0.4,0.4   c0,0.1,0.2,0.3,0.4,0.7l0.6,1.1h-1.4l-0.5-0.9c-0.3-0.6-0.6-1-0.8-1.1c-0.2-0.2-0.5-0.2-0.8-0.2h-0.3v2.3H753.9z M755.1,747.1h0.5   c0.6,0,1,0,1.2-0.1c0.2,0,0.3-0.1,0.4-0.3c0.1-0.1,0.1-0.3,0.1-0.4c0-0.2,0-0.3-0.1-0.4s-0.2-0.2-0.4-0.3c-0.2-0.1-0.6-0.1-1.2-0.1   h-0.5V747.1z"/>
</g>
</svg>